<?xml version="1.0" encoding="utf-8"?>
<!-- Generator: Adobe Illustrator 17.0.0, SVG Export Plug-In . SVG Version: 6.00 Build 0)  -->
<!DOCTYPE svg PUBLIC "-//W3C//DTD SVG 1.1//EN" "http://www.w3.org/Graphics/SVG/1.1/DTD/svg11.dtd">
<svg version="1.1" id="Layer_1" xmlns="http://www.w3.org/2000/svg" xmlns:xlink="http://www.w3.org/1999/xlink" x="0px" y="0px"
	 width="600px" height="600px" viewBox="0 0 600 600" enable-background="new 0 0 600 600" xml:space="preserve">
<rect x="346.886" y="256.927" fill="#755522" width="4.38" height="82.615"/>
<rect x="363.117" y="242.445" fill="#755522" width="4.38" height="84.858"/>
<path fill="#119DD9" d="M162.055,389.593c0,0,6.435-44.438,6.779-59.052c0.344-14.615-4.552-31.837,3.682-50.815
	c8.234-18.978,17.458-31.784,31.874-41.19c14.418-9.406,30.062-17.714,43.494-20.906c13.432-3.191,45.071-19.144,55.421-26.337
	c10.35-7.193,19.631-8.475,26.434,1.78c6.802,10.256,13.789,32.86,13.634,42.804c-0.156,9.943-10.248,28.327-13.634,31.296
	c-3.385,2.969-20.433,16.174-22.61,17.145c-2.178,0.971-25.517,17.647-26.757,18.116c-1.24,0.469,0.726-4.461,6.97,8.522
	c6.244,12.983,6.17,25.829,6.17,25.829s-38.082,24.365-50.496,27.793c-12.414,3.427-53.22,14.156-65.199,19.14
	C165.838,388.702,162.055,389.593,162.055,389.593z"/>
<path fill="none" stroke="#020202" stroke-width="2" stroke-miterlimit="10" d="M48.105,457.67
	c21.985-4.726,40.756-24.623,61.383-34.119c28.302-13.029,60.474-15.538,87.156-33.37c28.29-18.906,58.096-33.632,88.238-48.334
	c5.848-2.853,12.035-4.711,17.97-7.401c4.82-2.184,9.812-5.06,14.856-6.739c5.535-1.842,11.726-4.003,17.159-6.448
	c5.235-2.355,10.091-6.184,15.333-8.193c2.032-0.778,4.751-1.034,7.013-1.764"/>
<g>
	<g>
		<path fill="#FEE4D1" d="M425.861,286.772c4.42,0.032,8.554,2.774,12.215,4.971c4.484,2.691,8.949,5.455,13.398,8.2
			c1.17,0.723,2.074,1.452,2.458,2.072c-0.634-1.024,0.006,1.017-0.077-0.17c-0.001-0.016-0.14,1.753-0.085,1.444
			c-0.993,5.638-3.445,10.899-4.376,16.574c-0.59,3.598,0.882,7.159,4.663,8.214c2.547,0.71,8.017,0.213,9.814,1.844
			c0.45-3.495,0.901-6.991,1.352-10.486c-2.316,1.352-5.138,0.133-7.719,0.114c-2.998-0.023-6.313,0.96-9.011,2.225
			c-4.44,2.081-7.911,6.408-11.61,9.533c-7.504,6.34-17.68,14.276-27.92,9.639c-4.01-1.816-3.88-4.161-2.069-7.883
			c2.74-5.633,6.344-10.827,6.85-17.268c0.315-4.015-0.063-9.495,0.668-12.173c0.486-1.779-0.585,0.974,0.326-0.661
			c0.36-0.646,0.285-0.505,1.179-1.473c2.018-2.185,4.394-4.069,6.655-5.989c6.576-5.58-2.919-14.978-9.443-9.443
			c-3.829,3.25-8.268,6.626-10.495,11.27c-2.36,4.924-2.041,10.533-2.119,15.857c-0.101,6.91-5.557,12.662-7.607,19.102
			c-2.044,6.419,0.249,13.526,5.474,17.66c11.906,9.42,27.167,5.735,38.722-2.068c6.074-4.102,11.321-9.12,16.791-13.945
			c0.836-0.737,3.976-1.192,5.53-0.969c4.654,0.669,8.393,0.422,12.537-1.998c3.583-2.092,4.564-7.572,1.352-10.486
			c-4.746-4.305-9.957-3.676-15.706-5.278c1.555,2.737,3.109,5.475,4.663,8.214c1.802-10.983,10.188-24.15-1.036-32.822
			c-5.064-3.913-10.962-7.022-16.417-10.38c-5.719-3.52-12.099-6.745-18.955-6.794C417.246,273.355,417.252,286.709,425.861,286.772
			L425.861,286.772z"/>
	</g>
</g>
<g>
	<g>
		<path fill="#D3256B" d="M242.518,169.413c-3.177,12.512-2.52,26.537,1.187,38.867c0.511-1.257,1.023-2.513,1.534-3.771
			c-2.467,1.114-4.89,2.222-7.512,2.928c-4.153,1.118-2.388,7.559,1.775,6.438c3.173-0.855,6.119-2.252,9.106-3.601
			c1.322-0.596,1.93-2.454,1.534-3.771c-3.367-11.198-4.076-23.941-1.187-35.318C250.017,167.011,243.577,165.241,242.518,169.413
			L242.518,169.413z"/>
	</g>
</g>
<path fill="none" stroke="#020202" stroke-width="2" stroke-miterlimit="10" d="M266.978,154.658
	c-2.84,2.413-4.898,6.444-8.187,9.078c-2.79,2.233-5.621,3.231-8.758,4.731"/>
<path fill="none" stroke="#020202" stroke-width="2" stroke-miterlimit="10" d="M292.843,187.876
	c-8.822,7.973-19.353,12.748-30.226,17.301c-4.215,1.766-8.513,3.15-12.627,4.931c-3.925,1.698-10.855,4.448-14.058,7.46"/>
<path fill="none" stroke="#020202" stroke-width="2" stroke-miterlimit="10" d="M237.476,224.351
	c3.166-4.665,9.753-6.818,14.901-7.892c6.993-1.459,13.102-3.478,19.346-7.236c9.797-5.895,21.881-10.709,30.573-18.475
	c1.489-1.33,2.543-3.239,4.275-4.348"/>
<path fill="none" stroke="#020202" stroke-width="2" stroke-miterlimit="10" d="M344.197,235.878
	c0.193-4.767-1.192-10.017-2.101-14.514c-1.148-5.676-2.817-11.498-5.105-16.99c-2.331-5.597-6.636-12.434-10.867-16.83
	c-4.776-4.963-8.436-2.864-14.397-3.587"/>
<path fill="none" stroke="#020202" stroke-width="2" stroke-miterlimit="10" d="M313.175,205.107
	c-0.156,3.535-0.471,7.047,0.141,10.461c0.73,4.075,2.066,8.067,2.725,12.165c0.838,5.202,3.222,17.014-2.387,20.464"/>
<path fill="none" stroke="#020202" stroke-width="2" stroke-miterlimit="10" d="M252.565,259.47
	c4.887,0.215,9.756,0.397,14.563-0.303c6.837-0.995,11.017-6.764,14.794-12.07"/>
<path fill="none" stroke="#020202" stroke-width="2" stroke-miterlimit="10" d="M248.281,167.796
	c-2.851,0.166-5.452,1.49-8.11,2.025c-3.238,0.652-6.539,1.149-9.624,2.598c-6.08,2.858-11.78,6.73-17.368,10.449
	c-12.315,8.196-19.144,21.354-23.46,34.927c-4.302,13.53-3.262,22.323-6.562,37.005"/>
<path fill="none" stroke="#020202" stroke-width="2" stroke-miterlimit="10" d="M218.099,269.834
	c3.17,4.242,4.73,9.887,8.366,14.038c2.292,2.617,8.333,10.844,11.987,9.432"/>
<path fill="none" stroke="#020202" stroke-width="2" stroke-miterlimit="10" d="M451.881,279.526
	c-1.426-0.678-3.461-0.272-4.916-1.19c-1.321-0.832-2.336-2.612-2.871-3.897c-1.373-3.309-1.298-8.589-4.283-10.889"/>
<path fill="none" stroke="#020202" stroke-width="2" stroke-miterlimit="10" d="M463.023,269.323
	c3.133,1.635,6.235,3.867,9.002,6.337c1.312,1.171,2.773,2.281,4.138,3.509c1.798,1.615,2.478,3.418,4.001,5.217
	c-0.94,1.272-2.324,2.1-3.316,3.383c-1.153,1.491-1.882,3.285-2.892,4.916c-1.062,1.715-3.11,5.266-5.309,5.058
	c-0.669-7.002-13.774-10.358-18.759-13.486c-7.19-4.512-15.064-8.45-23.671-8.83"/>
<path fill="none" stroke="#020202" stroke-width="2" stroke-miterlimit="10" d="M230.785,302.176
	c1.504,3.83-6.593,10.363-8.879,12.976c-4.386,5.013-9.216,9.869-13.147,15.1c-9.025,12.006-17.95,24.647-24.834,37.882
	c-3.274,6.294-4.82,12.944-4.689,20.12c-0.662-0.795-1.088-1.835-1.418-2.863"/>
<path fill="none" stroke="#020202" stroke-width="2" stroke-miterlimit="10" d="M181.04,386.424c1.806-1.72,1.444-6.038,3.294-8.506
	c1.895-2.529,4.285-4.221,6.863-5.979c6.529-4.453,13.824-8.225,19.466-13.849c13.325-13.284,22.199-32.614,38.825-42.31
	c16.898-9.856,36.598-13.713,53.261-23.501c6.315-3.71,10.408-9.72,15.938-14.354c1.707-1.43,4.034-4.038,5.166-5.984
	c0.868-1.493,2.996-0.991,3.822-2.498c0.927-1.691,2.361-2.98,3.457-4.543c1.528-2.176,3.167-4.38,4.746-6.56
	c2.31-3.187,5.016-7.138,6.449-10.739"/>
<path fill="none" stroke="#020202" stroke-width="2" stroke-miterlimit="10" d="M342.995,243.373
	c-1.864,2.326-2.763,4.151-5.069,6.003c-1.924,1.545-3.822,3.856-5.348,5.841c-2.088,2.718-3.247,6.126-5.657,8.609
	c-1.138,1.174-2.461,1.493-3.701,2.399c-1.552,1.135-2.354,2.914-3.425,4.453c-1.69,2.425-3.762,4.481-6.215,6.246
	c-4.653,3.346-9.421,6.704-14.173,10.087c-8.696,6.188-19.51,13.583-30.212,16.046c-8.223,1.892-16.5,5.112-22.59,11.093
	c-2.93,2.876-5.947,4.659-9.31,7.034c-2.042,1.443-4.071,2.58-5.26,4.809c-1.033,1.939-0.816,5.018-3.159,6.1"/>
<path fill="none" stroke="#020202" stroke-width="2" stroke-miterlimit="10" d="M230.166,329.772
	c0.589,3.95-6.659,9.607-9.163,12.159c-3.939,4.018-8.485,7.457-12.089,11.791c-3.254,3.915-5.411,9.721-10.035,12.033
	c-4.866,2.432-8.686,2.913-12.78,6.929"/>
<path fill="none" stroke="#020202" stroke-width="2" stroke-miterlimit="10" d="M272.224,305.484
	c3.578,1.066,3.232,11.988,3.501,15.16c0.503,5.954,0.061,11.942-0.204,17.954"/>
<path fill="none" stroke="#020202" stroke-width="2" stroke-miterlimit="10" d="M277.909,304.546
	c1.127,2.446,4.696,5.421,6.182,8.453c1.147,2.336,2.205,5.176,3.057,7.611c1.616,4.619,0.357,15.573,0.144,20.437"/>
<path fill="none" stroke="#020202" stroke-width="2" stroke-miterlimit="10" d="M400.256,257.948
	c-5.608-2.434-9.385,6.663-10.01,11.144c-0.455,3.267,1.12,5.408,2.704,7.9c0.866,1.362,5.527,6.271,6.38,2.005"/>
<path fill="none" stroke="#020202" stroke-width="2" stroke-miterlimit="10" d="M463.142,313.882
	c0.409,1.664,0.322,3.585,1.261,5.105"/>
<path fill="none" stroke="#020202" stroke-width="2" stroke-miterlimit="10" d="M460.603,263.573
	c5.717,0.251,10.683,1.769,15.437,4.905c4.289,2.829,9.304,7.248,12.33,11.404c-0.533-0.127-1.204-0.091-1.719-0.244
	c4.468,3.214,6.643,5.571,7.835,11.119c-0.525-0.777-1.183-1.488-1.91-2.14c3.011,5.272,5.178,11.741,4.05,17.787
	c-1.805-0.102-1.988-2.414-2.715-3.784c0.065,4.574-1.491,10.253-4.964,13.265c0.003-0.584,0.103-2.382,0.044-2.192
	c-0.28,6.371-2.868,8.836-7.692,12.49c0.089-1.408,0.045-2.991,0.43-4.21c0.223,2.792-5.518,9.381-8.361,9.291"/>
<path fill="none" stroke="#020202" stroke-width="2" stroke-miterlimit="10" d="M390.905,321.992
	c-4.018-6.071-18.156-0.903-23.152,0.474c-4.462,1.229-8.624,3.021-12.82,5.089c-4.033,1.988-9.528,3.886-11.561,8.089"/>
<path fill="none" stroke="#020202" stroke-width="2" stroke-miterlimit="10" d="M375.902,318.658
	c2.534-5.276,0.733-13.622,1.517-19.472c0.697-5.202,5.336-16.082,12.189-15.272"/>
<g>
	<g>
		<path fill="#119DD9" d="M290.78,284.156c4.306,0,4.306-6.677,0-6.677C286.474,277.479,286.475,284.156,290.78,284.156
			L290.78,284.156z"/>
	</g>
</g>
<path fill="none" stroke="#020202" stroke-width="2" stroke-miterlimit="10" d="M299.276,290.412
	c2.798,2.551,10.652,3.264,14.076,4.008c4.949,1.078,10.353,0.282,15.665,0.131c5.553-0.159,10.591-1.087,15.971,0.616
	c3.512,1.112,7.033,2.187,10.527,3.319c1.804,0.585,5.884,1.411,7.081,3.28c0.086,0.134,0.541,0.402,0.682,0.506
	c-1.571,6.296-8.864,6.385-14.002,3.48"/>
<path fill="none" stroke="#020202" stroke-width="2" stroke-miterlimit="10" d="M324.355,312.733
	c-3.75-3.041-11.187-2.876-15.781-3.705c-5.456-0.984-10.991-2.198-16.417-3.042"/>
<path fill="none" stroke="#020202" stroke-width="2" stroke-miterlimit="10" d="M238.052,293.619
	c7.406,4.909,15.85,6.947,24.303,8.358c7.683,1.282,17.433,5.791,24.947,4.352"/>
<path fill="none" stroke="#020202" stroke-width="2" stroke-miterlimit="10" d="M309.901,293.183
	c1.311-4.245-5.985-3.788-8.138-2.911c-2.729,1.111-5.762,3.181-7.407,5.416c-1.929,2.618-3.251,7.807-1.95,11.026
	c1.673,4.138,4.809,1.995,7.742,1.721"/>
<path fill="none" stroke="#020202" stroke-width="2" stroke-miterlimit="10" d="M250.485,276.534
	c3.975-0.551,7.583-1.165,11.797-0.6c4.123,0.552,7.565,2.339,11.32,3.643c3.782,1.312,7.677,2.319,11.355,3.856
	c3.399,1.421,6.882,3.712,10.04,4.971"/>
<path fill="none" stroke="#020202" stroke-width="2" stroke-miterlimit="10" d="M245.144,253.388
	c-0.14,3.574,3.061,7.85,4.458,11.045c1.384,3.168,2.752,7.163,3.259,10.617"/>
<path fill="none" stroke="#020202" stroke-width="2" stroke-miterlimit="10" d="M256.664,356.21"/>
<path fill="none" stroke="#FEE4D1" stroke-miterlimit="10" d="M339.534,250.195"/>
<path fill="none" stroke="#020202" stroke-width="2" stroke-miterlimit="10" d="M326.353,270.142
	c3.968,2.354,7.918,4.338,12.504,5.601c5.492,1.513,11.85,1.167,17.511,2.251c10.733,2.055,21.719,1.255,32.534,1.731"/>
<g>
	<g>
		<path fill="#2C2C6A" d="M339.811,247.756c-5.619,5.464-10.038,11.874-14.691,18.142c-5.622,7.576-11.921,13.221-20.101,17.932
			c-16.392,9.442-34.025,16.528-50.529,25.74c-7.48,4.176-14.018,9.523-19.732,15.89c-5.876,6.547-10.924,13.722-17.502,19.627
			c-7.221,6.482-13.605,14.876-21.752,20.19c-5.45,3.555-12.135,4.992-16.196,10.415c-1.292,1.726,1.609,3.386,2.882,1.685
			c4.131-5.518,12.089-6.523,17.261-10.806c7.512-6.222,14.026-13.613,21.286-20.131c6.522-5.855,11.529-13.214,17.361-19.713
			c6.173-6.877,13.666-11.997,21.79-16.293c16.441-8.692,33.611-15.957,49.67-25.383c14.397-8.452,20.995-23.638,32.614-34.937
			C343.717,248.613,341.355,246.255,339.811,247.756L339.811,247.756z"/>
	</g>
</g>
<path fill="#FEE4D1" d="M250.891,206.8c0,0-3.102-3.857-3.535-16.32c-0.433-12.463-4.365-13.593,3.535-20.167
	c7.898-6.574,15.321-10.818,17.695-15.652l1.473-4.459l-1.473-5.125c0,0-3.104-4.693-3.474-7.251
	c-0.705-4.878,6.032-15.153,9.409-11.656c3.378,3.496,6.822,6.018,6.822,6.018s0,0,7.084-5.108
	c7.084-5.108,10.385-3.358,16.024-6.848c5.638-3.489,13.796-4.911,19.421-4.531c6.648,0.449,11.257,2.259,11.554,11.366
	s1.362,7.778-2.149,16.392c-3.511,8.615-1.224,9.333-8.92,20.609c0,0-4.45,8.12-8.041,13.204c-3.361,4.76-7.993,5.8-12.445,7.58
	c-4.451,1.78-6.696-0.343-12.966,4.701c-6.27,5.045-10.136,5.697-20.844,11.311C259.353,206.478,250.891,206.8,250.891,206.8z"/>
<path fill="none" stroke="#020202" stroke-width="2" stroke-miterlimit="10" d="M329.738,152.667
	c-3.622,3.191-4.204,10.194-6.34,14.505c-2.264,4.572-5.281,10.305-9.209,13.888c-2.519,2.296-4.669,2.353-7.799,3.023
	c-3.245,0.693-5.606,2.388-8.702,3.352c-5.6,1.744-11.145-1.207-15.389-4.263c-8.524-6.138-12.671-14.493-12.204-25.108"/>
<path fill="none" stroke="#020202" stroke-width="2" stroke-miterlimit="10" d="M299.847,129.967
	c3.753-1.813,8.888,1.193,11.714,3.783"/>
<path fill="none" stroke="#020202" stroke-width="2" stroke-miterlimit="10" d="M319.949,138.87
	c4.075,0.086,7.696-1.799,11.239,1.089"/>
<path fill="none" stroke="#020202" stroke-width="2" stroke-miterlimit="10" d="M318.685,140.596
	c-1.871,4.937-3.482,8.993-3.603,14.381c-0.061,2.702,1.082,6.171-1.419,7.081c-1.58,0.575-7.113-0.007-8.047-1.243"/>
<path fill="none" stroke="#020202" stroke-width="2" stroke-miterlimit="10" d="M320.936,150.202
	c0.16-3.626,0.829-8.495,5.933-6.571c1.31,0.495,3.063,2.425,1.01,3.846c-2.103,1.455-2.101-1.999-1.062-2.66"/>
<path fill="none" stroke="#020202" stroke-width="2" stroke-miterlimit="10" d="M295.986,143.459
	c1.559-1.821,0.673-3.319,2.86-4.553c1.625-0.917,4.628-1.018,5.855,0.6c1.384,1.823-0.069,4.871-2.469,3.641
	c-1.682-0.861-0.988-3.577,1.324-2.92"/>
<path fill="none" stroke="#020202" stroke-width="2" stroke-miterlimit="10" d="M295.07,166.59c2.16,6.996,10.964,8.076,16.47,3.561
	"/>
<path fill="#FEE4D1" d="M400.256,304.45c0,0-0.658-9.463,4.535-13.126c5.192-3.662,6.196-5.02,9.701-7.452
	c3.504-2.432,5.743-1.452,8.555-2.615c2.812-1.163,3.864-3.982,3.864-3.982s6.367,0.365,18.471,5.49
	c12.105,5.125,24.067,10.814,23.267,14.977c0,0-1.763,7.689-3.174,11.49c-1.41,3.801-3.043,7.917,3.115,9.976
	c6.157,2.059,13.787,2.919,7.284,8.165c0,0-4.538,5.784-10.4,5.848c-5.861,0.064-8.57-3.549-13.088,0.303
	c-4.517,3.852-3.53,5.77-12.062,11.557s-11.534,13.778-25.834,9.894c-14.3-3.885-18.907-4.107-20.388-9.894
	c-1.48-5.787-0.482-13.506,2.246-15.655c2.729-2.15,1.393-2.157,2.506-5.715c1.114-3.557,5.045-1.859,7.418-4.49
	c2.375-2.63,5.094-8.564,1.62-10.939C404.42,305.912,400.256,304.45,400.256,304.45z"/>
<path fill="none" stroke="#020202" stroke-width="2" stroke-miterlimit="10" d="M403.007,323.712
	c-2.011,2.795-3.81,7.129-6.656,9.51"/>
<path fill="none" stroke="#020202" stroke-width="2" stroke-miterlimit="10" d="M470.781,322.536
	c-1.351-0.814-4.347,0.317-6.029,0.691c-3.488,0.776-4.978,2.425-1.706,5.16c-1.453,0.01-3.102,0.113-4.385-0.445"/>
<path fill="none" stroke="#020202" stroke-width="2" stroke-miterlimit="10" d="M427.145,281.407c1.95-1.157,5.71,4.713,7.46,5.972"
	/>
<path fill="none" stroke="#020202" stroke-width="2" stroke-miterlimit="10" d="M448.496,295.714
	c4.03,0.415,7.368,5.261,10.991,6.721"/>
<path fill="none" stroke="#020202" stroke-width="2" stroke-miterlimit="10" d="M419.704,288.506
	c2.571-0.056,3.984,4.854,6.584,5.636"/>
<path fill="none" stroke="#020202" stroke-width="2" stroke-miterlimit="10" d="M441.905,303.74
	c2.794-0.419,7.947,4.847,9.805,6.668"/>
<path fill="none" stroke="#020202" stroke-width="2" stroke-miterlimit="10" d="M431.315,294.661
	c-1.794-0.511-5.4,4.472-7.089,5.709c-2.109,1.545-4.421,2.618-6.708,4.08"/>
<path fill="none" stroke="#020202" stroke-width="2" stroke-miterlimit="10" d="M418.626,306.28
	c1.985,0.113,2.618,1.423,4.047,2.554"/>
<path fill="none" stroke="#020202" stroke-width="2" stroke-miterlimit="10" d="M410.787,308.906
	c1.712-0.75,8.309,6.759,10.037,8.164"/>
<path fill="none" stroke="#020202" stroke-width="2" stroke-miterlimit="10" d="M424.673,317.261
	c-1.02,4.109-8.335,3.78-11.178,2.176c-3.647-2.057-3.733-7.119-3.733-10.855"/>
<path fill="none" stroke="#020202" stroke-width="2" stroke-miterlimit="10" d="M418.886,291c0.643,0.63,1.063,2.316,1.367,3.306
	c0.706,0.225,1.394,0.305,2.193,0.254"/>
<path fill="none" stroke="#020202" stroke-width="2" stroke-miterlimit="10" d="M442.072,307.024
	c-0.114,1.874,2.185,2.968,3.784,3.115"/>
<path fill="none" stroke="#020202" stroke-width="2" stroke-miterlimit="10" d="M453.014,334.823
	c-3.984,2.729-9.963,4.39-14.721,3.808"/>
<path fill="#FEE4D1" d="M345.74,335.483c0,0,11.868-7.468,21.399-11.47c9.531-4.003,24.326-4.915,22.236-0.825
	c-2.091,4.09-20.369,19.476-20.369,19.476L345.74,335.483z"/>
<path fill="none" stroke="#020202" stroke-width="2" stroke-miterlimit="10" d="M400.263,318.542
	c-3.178,0.291-7.783,3.311-10.889,4.645c-3.238,1.391-6.831,2.86-9.663,4.906c-3.017,2.179-5.112,5.328-7.621,7.856
	c-2.568,2.587-5.602,3.923-6.782,7.491"/>
<path fill="#393A3A" d="M267.242,151.901c0,0-1.651,6.895-9.954,8.566c-9.008,1.813-18.993-2.921-20.18-8.393
	c0,0-4.577-11.477,3.465-16.614c4.526-2.891,12.987-3.88,12.987-3.88s5.722,15.312,6.071,14.849
	c0.349-0.463-9.197-14.298-3.863-25.206c5.332-10.908,10.5-19.824,19.87-25.589c9.373-5.764,33.558-6.643,36.301-1.457
	c2.743,5.186,5.419,7.464,6.518,10.393c1.232,3.28,1.492,9.496,1.492,9.496l-1.807,0.846c0,0,0.931,0.102-0.876-7.123
	c-1.807-7.225,1.42-9.259,1.42-9.259s5.975-1.229,14.294,12.42c8.319,13.65,9.996,18.905,7.957,23.372
	c-2.865,6.274-7.184,11.849-6.123,2.481c1.161-10.261-2.041-21.171-6.918-21.338c-4.878-0.168-3.817,0.496-18.655,3.778
	c-14.838,3.282-13.732,1.117-20.814,7.837c-7.082,6.72-9.77,6.424-9.77,6.424s-3.279-9.496-9.445-6.424
	c-7.793,3.883-4.364,7.939-2.233,16.38C269.108,151.901,267.242,151.901,267.242,151.901z"/>
<g>
	<g>
		<g>
			<path fill="none" stroke="#020202" stroke-width="2" stroke-miterlimit="10" d="M310.654,93.609
				c-4.351-1.92-10.805-1.664-15.898-1.887c-7.019-0.309-13.053-0.132-19.116,3.913c-10.465,6.98-18.681,17.723-21.062,30.32
				c-0.954,5.047-1.67,12.008-0.075,16.868c1.653,5.034,6.497,10.482,11.896,11.513"/>
			<path fill="none" stroke="#020202" stroke-width="2" stroke-miterlimit="10" d="M311.941,94.179
				c4.968,2.876,8.226,18.282,5.568,22.97"/>
			<path fill="none" stroke="#020202" stroke-width="2" stroke-miterlimit="10" d="M316.387,98.318
				c5.779,0.254,9.15,2.157,12.152,6.99c2.906,4.677,5.59,10.192,7.284,15.605c1.487,4.753,2.739,10.271,2.058,15.478
				c-0.363,2.768-1.623,3.78-3.14,5.878c-1.766,2.444-2.526,5.245-3.922,7.772c-0.41,0.742-0.914,1.149-1.053,2.034"/>
		</g>
		<path fill="none" stroke="#020202" stroke-width="2" stroke-miterlimit="10" d="M252.553,131.45
			c-5.628-0.247-9.183,1.062-13.053,5.055c-3.854,3.979-4.992,9.371-2.895,14.441c4.792,11.585,16.152,12.987,26.065,7.087"/>
	</g>
	<g>
		<g>
			<path fill="none" stroke="#020202" stroke-width="2" stroke-miterlimit="10" d="M280.749,137.063
				c3.515-6.526,6.426-10.31,13.583-13.321c3.742-1.574,7.825-1.729,11.69-3.041c3.557-1.208,6.372-3.916,10.292-3.603"/>
			<path fill="none" stroke="#020202" stroke-width="2" stroke-miterlimit="10" d="M319.176,115.965
				c2.895,0.206,5.378-2.061,8.719-0.5c3.462,1.619,5.167,4.591,5.794,7.97c1.08,5.828,1.285,11.529,1.019,17.57"/>
		</g>
		<g>
			<path fill="none" stroke="#020202" stroke-width="2" stroke-miterlimit="10" d="M275.377,139.286
				c-0.541-1.643-1.589-3.103-1.92-4.792c-1.274-0.406-2.504-0.135-2.383,1.335"/>
			<g>
				<path fill="none" stroke="#020202" stroke-width="2" stroke-miterlimit="10" d="M270.399,144.413
					c2.482,0.108,5.195-0.285,6.375,2.301c1.001,2.197,0.138,4.156-1.947,5.094c-3.934,1.773-9.14-0.77-8.077-5.478"/>
				<path fill="none" stroke="#020202" stroke-width="2" stroke-miterlimit="10" d="M278.999,137.96
					c-1.283-3.8,1.438-7.226-3.196-9.884c-3.017-1.731-7.837-1.28-9.515,1.914c-2.77,5.272-0.838,21.417,7.807,18.15"/>
			</g>
		</g>
	</g>
</g>
<path fill="#FEE4D1" d="M421.56,381.835c0,0,5.71-5.994,8.75-13.029c3.042-7.034,3.658-10.871,5.579-13.488
	c1.92-2.618,2.686-2.954,3.922-5.333c1.236-2.38,13.201-12.648,19.676-0.305c4.761,9.075,6.583,14.259-0.093,25.668
	c-6.676,11.409-22.852,29.873-22.852,29.873s-6.258-8.73-9.398-15.629C424.003,382.692,421.56,381.835,421.56,381.835z"/>
<path fill="#FFF0A2" d="M460.603,377.082c0,0,4.046-4.403,4.199-9.522c0.153-5.119,1.563-9.119-2.146-15.799
	c-3.71-6.68-6.497-7.955-8.665-9.098c-2.165-1.142-10.029,2.339-10.029,2.339s4.63-9.991,10.03-9.517
	c5.4,0.473,15.648-1.645,19.376-4.221c0,0,8.017-2.861,13.069-8.466c4.924-5.462,3.563-6.945,6.042-10.729
	c2.174-3.319,4.068-3.228,5.193-9.633c1.571-8.944-0.928-13.219-5.787-18.898c-4.858-5.678-4.433-6.837-11.21-11.596
	c-6.777-4.758-10.151-11.073-16.902-9.503c-6.753,1.57-7.724,0.385-12.062-2.775c-4.337-3.161-6.327-5.96-6.327-5.96
	s47.738,10.283,61.859,25.076c14.121,14.793,36.573,29.803,27.85,48.593c-6.332,13.639-6.156,23.643-21.625,34.92
	c-15.468,11.277-23.427,22.052-33.302,21.013C470.292,382.267,460.603,377.082,460.603,377.082z"/>
<path fill="#FFF0A2" d="M363.277,304.577c0,0,3.21-13.205,9.825-16.173c6.615-2.967,11.454-6.058,15.801-7.122
	c4.347-1.064,12.551-0.854,17.373-3.357l9.53-6.958l-3.299,8.034c0,0-0.472,0.567-1.72,3.056s-14.439,15.546-13.519,15.695
	c0.92,0.148,0.15,6.825,0.15,6.825l-2.208,14.633l-3.773,1.341l-8.653-2.705l-9.152,0.814l-5.88,3.807l2.388-7.9
	c0,0,0.454-3.016,2.567-6.28c2.113-3.264-2.567-4.937-2.567-4.937L363.277,304.577z"/>
<path fill="none" stroke="#020202" stroke-width="2" stroke-miterlimit="10" d="M412.533,283.102
	c-0.897,2.818-6.185,5.022-8.428,6.781c-2.668,2.093-4.033,5.213-4.825,8.618c-0.805,3.454-0.643,7.245,0.296,10.514
	c0.96,3.345,2.847,5.609,4.039,8.83"/>
<path fill="none" stroke="#020202" stroke-width="2" stroke-miterlimit="10" d="M364.454,322.313
	c0.353-2.554-0.572-4.475-1.783-6.541c-0.954-1.625-3.26-3.219-3.889-4.798c-1.065-2.664,4.174-9.263,5.956-12.124
	c5.347-8.589,12.237-15.647,22.038-18.032"/>
<g>
	<path fill="#BAC2E2" stroke="#020202" stroke-width="2" stroke-miterlimit="10" d="M356.697,308.048
		c0.012-0.303-0.048-0.586-0.182-0.852c-4.177-0.164-9.513-2.227-13.6-3.847c-0.291,4.699-0.511,6.467,4.806,7.248
		c3.727,0.548,8.101,2.609,8.05-2.703"/>
	<path fill="none" stroke="#020202" stroke-width="2" stroke-miterlimit="10" d="M386.674,311.731
		c-5.554,0-12.014-0.998-17.425,0.297"/>
	<path fill="none" stroke="#020202" stroke-width="2" stroke-miterlimit="10" d="M386.674,308.889
		c-5.554,0-12.014-0.998-17.425,0.297"/>
	<path fill="#BAC2E2" stroke="#020202" stroke-width="2" stroke-miterlimit="10" d="M388.075,313.029
		c-0.396-1.484-3.032-2.819-1.961-5.121c0.61-1.312,3.61-1.151,4.701-1.33c3.472-0.57,8.468-1.352,11.91,0.284
		c3.193,1.516,6.676,4.801,4.482,9.326c-1.625,3.351-6.696,3.129-9.558,2.63c-4.227-0.738-11.565-2.787-11.923-9.124"/>
	<g opacity="0.8">
		<g>
			<path fill="#F36F5F" d="M388.911,314.687c3.64,2.442,7.942,3.629,12.32,3.354c2.723-0.171,5.008-2.148,5.008-5.008
				c0-2.6-2.281-5.179-5.008-5.008c-2.802,0.176-4.866-0.377-7.265-1.987c-2.271-1.523-5.536-0.448-6.851,1.797
				C385.67,310.3,386.648,313.169,388.911,314.687L388.911,314.687z"/>
		</g>
	</g>
</g>
<g>
	<path fill="none" stroke="#020202" stroke-width="2" stroke-miterlimit="10" d="M451.475,342.775
		c11.661,2.649,14.906,19.971,9.913,29.552c-5.45,10.458-11.811,19.741-20.125,28.515c-2.769,2.923-5.468,5.007-8.408,7.351"/>
	<path fill="none" stroke="#020202" stroke-width="2" stroke-miterlimit="10" d="M400.326,323.892
		c-10.745,8.077-13.045,21.432-0.241,28.729c11.167,6.364,24.132,3.353,34.832-1.943c3.165-1.567,6.382-3.059,9.296-4.886
		c2.514-1.577,4.34-3.463,7.559-3.001"/>
</g>
<path fill="#9164AA" d="M437.136,406.359c0,0,21.641-24.778,22.258-26.558s12.714,5.289,17.134,5.045
	c4.421-0.244,26.812-13.227,35.966-21.62c8.309-7.617,17.225-19.221,19.896-24.58c2.67-5.359,3.649-9.616,3.649-9.616l54.439,23.769
	l1.152,6.973l-5.766,45.451l-26.198,18.286l-49.041,33.748l-30.793,18.605l-21.171-28.55L437.136,406.359z"/>
<path fill="none" stroke="#020202" stroke-width="2" stroke-miterlimit="10" d="M589.229,364.577
	c-21.475,15.55-46.37,26.619-68.745,41.834c-11.157,7.587-21.3,15.908-32.725,23.051c-6.274,3.922-12.507,7.626-18.325,12.041
	c-4.705,3.572-8.422,8.46-13.816,10.849c0.077,0.332,0.353,0.413,0.828,0.244"/>
<path fill="none" stroke="#020202" stroke-width="2" stroke-miterlimit="10" d="M581.911,409.404
	c-12.333,6.962-23.893,15.854-36.278,22.688c-9.491,5.239-18.278,10.612-26.254,18.018c-8.012,7.44-18.396,13.863-27.961,19.106
	c-7.23,3.963-20.086,9.308-26.759,13.68"/>
<path fill="none" stroke="#9164AA" stroke-miterlimit="10" d="M302.043,336.392"/>
<g>
	<g>
		<path fill="#FEE4D1" d="M356.699,306.182c0,0-10.959-2.833-13.325-4.006c-1.148-0.57-1.574,7.892,0.84,8.187
			c6.08,0.741,10.563,5.599,14.575,2.131c4.013-3.468,3.929-4.319,6.535-5.094c2.604-0.776,3.171,7.193,1.187,10.53
			c-1.984,3.337-7.4,7.643-8.822,8.311c-1.421,0.668,3.09-0.797,1.444,2.227s1.294,9.006-4.197,6.356
			c-5.49-2.651-8.528-3.719-12.145-6.421c-3.617-2.703-3.805-5.502-9.591-11.215c-5.787-5.712-18.318-8.076-26.073-9.788
			c-7.755-1.711-12.366,2.811-24.193-1.119s-10.491-1.007-23.845-5.807c-13.353-4.8-18.324-2.694-25.817-10.786
			c-7.493-8.092-12.908-18.119-12.908-18.119s3.474-2.433,6.559-8.305c3.085-5.873,17.032-8.462,17.032-8.462l7.418,20.504
			c0,0-0.519,2.266,3.265,1.97c3.784-0.297,0.447-1.94,11.128,0.649c10.681,2.589,20.341,10.728,29.904,12.853
			c9.563,2.124,28.769,6.797,35.606,5.09c6.836-1.707,32.652,3.607,31.318,5.901c-1.333,2.293-2.087,5.645-7.171,4.116"/>
		<g>
			<path fill="none" stroke="#020202" stroke-width="2" stroke-miterlimit="10" d="M353.905,313.807
				c0.357,0.209,0.974,0.162,1.389,0.511c2.978-2.566,3.951-5.663,7.602-7.616c3.785-2.024,5.366-3.31,8.93-0.1
				c-3.112,1.354-5.972,8.035-7.952,10.964c-1.641,2.427-2.376,3.043-5.291,3.267c-2.392,0.183-5.006,0.817-7.211-0.518"/>
			<path fill="none" stroke="#020202" stroke-width="2" stroke-miterlimit="10" d="M367.48,312.125
				c4.947,2.808-2.157,10.028-4.406,12.032c-5.418,4.825-7.926,0.022-13.998-0.378"/>
			<path fill="none" stroke="#020202" stroke-width="2" stroke-miterlimit="10" d="M360.852,326.958
				c-0.186,0.748-0.602,2.138-0.619,3.149c-3.99,0.798-6.566,2.078-10.238-0.734"/>
			<path fill="none" stroke="#020202" stroke-width="2" stroke-miterlimit="10" d="M357.49,331.492
				c0.49,0.177,1.031,0.676,1.422,0.996c-3.522,7.761-13.566-1.214-17.89-4.08c-1.272-0.844-2.814-1.605-3.952-2.619
				c-1.755-1.566-2.416-3.567-3.744-5.508c-1.98-2.896-4.616-6.127-7.737-7.798"/>
		</g>
	</g>
	<path fill="none" stroke="#020202" stroke-width="2" stroke-miterlimit="10" d="M312.946,293.422
		c1.026-3.525-1.303-5.175-3.981-6.912c-2.822-1.83-4.484-1.333-7.558-0.4c-6.104,1.852-10.672,5.398-13.269,11.437
		c-2.225,5.174-1.619,10.469,2.6,14.262c4.641,4.171,9.982,2.857,11.96-3.464"/>
	<g>
		<g>
			<path fill="#D3256B" d="M312.516,291.141c-5.553-10.222-20.469-3.728-23.667,5.315c-3.167,8.958,3.861,22.936,13.77,14.459
				c1.638-1.401-0.735-3.751-2.361-2.361c-7.228,6.182-10.432-6.318-8.015-11.557c2.754-5.968,13.278-11.739,17.39-4.171
				C310.662,294.718,313.545,293.032,312.516,291.141L312.516,291.141z"/>
		</g>
	</g>
</g>
<path fill="#C4292D" d="M367.658,341.372c0,0,8.499-9.5,11.614-11.427c3.115-1.926,6.638-2.759,9.136-5.356
	c2.497-2.597,10.385-5.917,11.272-4.434c0.887,1.483-0.169,2.31-0.169,2.31s-3.365,1.839-6.089,7.479
	c-2.725,5.64-4.337,12.911-0.193,17.51c4.144,4.6,7.706,7.569,14.086,8.755c6.38,1.186,19.52,0.488,23.562-2.523
	c4.041-3.011,9.399-4.728,8.937-3.701c-0.463,1.025-4.754,2.218-7.574,8.895c-2.82,6.677-5.536,12.734-8.481,16.605
	s-3.111,5.206-3.111,5.206s-4.135-2.82-12-9.347c-7.863-6.528-16.46-12.463-22.77-17.508c-6.311-5.045-11.233-8.398-14.053-9.786
	c-2.821-1.387-4.687-1.963-4.687-1.963L367.658,341.372z"/>
<path fill="none" stroke="#020202" stroke-width="2" stroke-miterlimit="10" d="M438.463,354.976
	c-5.218,1.182-7.264,9.111-9.439,13.313c-2.412,4.66-5.439,11.365-9.897,14.351"/>
<path fill="#A1742B" d="M424.416,254.524c0,0-0.31-19.536,2.496-21.167c2.806-1.632,16.096-0.056,40.906,9.319
	c24.81,9.376,66.804,22.556,81.339,28.29c14.535,5.733,40.071,14.233,45.255,18.327c7.233,5.713,2.372,67.964,2.372,67.964
	l-5.787,69.428l0.633,34.719l-6.568,1.841l-12.167-1.841l3.819-25.52v-21.96l9.149-8.705l4.242-26.905l0.593-21.059l-0.223-4.461
	l-11.944-6.232l-42.033-17.537l-0.461-1.603c0,0,2.583-3.911,1.396-9.374c-1.187-5.463-2.932-10.513-13.141-21.088
	c-10.209-10.574-14.109-17.595-26.621-25.426c-11.235-7.032-21.992-10.38-29.855-13.997c-7.215-3.318-19.321,0.908-19.321,0.908
	l-4.535-1.371l-4.15-2.854l-6.957,0.302h-8.44v0.002H424.416z"/>
<path fill="none" stroke="#020202" stroke-width="2" stroke-miterlimit="10" d="M575.18,413.861
	c3.142,2.192,0.521,18.522,0.331,22.858c-0.313,7.132-0.341,17.455-3.719,23.776"/>
<path fill="none" stroke="#020202" stroke-width="2" stroke-miterlimit="10" d="M428.831,236.333
	c2.329,0.705,4.142,1.835,6.74,2.079c2.729,0.257,4.858,0.357,7.355,1.274c5.404,1.982,10.477,4.27,16.093,6.076
	c13.916,4.472,27.347,10.224,40.956,15.087c16.308,5.829,32.647,11.252,49.069,17.025c13.408,4.714,26.234,10.232,39.455,15.675
	c5.267,2.169,5.626,7.384,5.67,12.731c0.047,5.746,0.102,11.733-0.163,17.205c-0.531,10.972-0.966,21.948-1.448,32.922
	c-0.018,0.396-0.035,0.79-0.053,1.186"/>
<path fill="none" stroke="#020202" stroke-width="2" stroke-miterlimit="10" d="M429.127,236.346
	c-0.011,3.099-1.32,5.923-1.294,9.15c0.025,3.042,0.03,6.092-0.108,9.203"/>
<path fill="none" stroke="#020202" stroke-width="2" stroke-miterlimit="10" d="M536.04,329.029
	c2.824-0.231,10.805,4.658,13.272,5.795c4.376,2.016,9.229,3.165,13.609,5.227c8.312,3.916,21.514,10.617,28.709,15.951"/>
<path fill="none" stroke="#020202" stroke-width="2" stroke-miterlimit="10" d="M583.701,463.245
	c-0.298-6.5,0.896-13.635,1.187-20.222c0.443-10.052,0.884-20.104,1.327-30.156c0.338-7.68,1.576-14.549,2.742-21.867
	c0.894-5.609,1.98-11.228,2.229-16.893c0.239-5.434-0.397-11.656,0.444-16.851"/>
<path fill="#3F3F3F" d="M459.395,264.009c0,0,11.546-1.633,25.591,13.266c13.428,14.243,11.721,28.609,11.721,28.609l-4.599-5.41
	c0,0,2.789,6.279-2.107,13.409c-4.895,7.13-1.075,0.762-1.075,0.762s-2.127,7.506-6.038,9.068c-3.911,1.562-4.529,3.66-4.529,3.66
	l-1.831-5.126l-2.393-3.589l-3.5-0.814l-5.884-1.41l1.23-4.096l4.022-5.711v-6.154l3.404-6.901l4.365-5.614l2.392-3.574l-6.03-8.074
	l-11.479-7.585L459.395,264.009z"/>
<path fill="none" stroke="#020202" stroke-width="2" stroke-miterlimit="10" d="M472.252,295.868
	c4.343,1.775,3.817,7.173,3.668,11.152"/>
<g>
	<g>
		<path fill="none" stroke="#020202" stroke-width="2" stroke-miterlimit="10" d="M469.528,365c4.025-0.625,6.726-8.62,7.923-11.837
			c2.126-5.717,4.093-10.8,5.29-16.939c1.549,7.363,1.144,19.173-3.57,25.636"/>
		<path fill="none" stroke="#020202" stroke-width="2" stroke-miterlimit="10" d="M524.81,316.936
			c1.205-3.175,0.01-10.777-3.967-11.424c1.722,0.721,3.251,2.06,4.616,3.433"/>
		<path fill="none" stroke="#020202" stroke-width="2" stroke-miterlimit="10" d="M522.025,292.457
			c1.998,1.148,3.619,4.772,4.955,6.724c1.919,2.802,4.262,5.016,6.297,7.739c3.547,4.744,4.547,9.335,3.483,14.999
			c-1.28,6.811-3.628,12.139-6.451,18.355c-1.563,3.443-2.747,6.6-5.365,9.423c-1.998,2.153-4.263,4.204-6.168,6.471
			c-3.788,4.507-7.82,8.2-12.613,11.771c-5.538,4.125-11.564,6.077-17.08,9.802c-5.394,3.643-8.889,6.006-15.537,4.292
			c-2.628-0.678-4.82-1.95-7.296-2.936c-1.827-0.726-4.816-2.319-6.744-2.361"/>
	</g>
	<path fill="none" stroke="#020202" stroke-width="2" stroke-miterlimit="10" d="M448.496,258.447
		c3.088-0.104,4.784-3.292,7.952-2.968c3.169,0.325,6.238,0.883,9.206,1.517c5.556,1.189,10.732,4.637,16.047,6.447
		c12.876,4.385,25.67,14.036,34.901,24.316c4.161,4.634,8.981,10.844,10.382,17.086c1.442,6.425-1.276,13.493-3.079,19.472
		c-2.18,7.231-4.559,12.149-10.508,16.844c-6.234,4.918-10.225,12.419-16.484,17.401c-4.67,3.718-10.706,6.168-16.226,7.812
		c-2.393,0.713-4.313,0.452-6.792,0.584c-2.758,0.147-5.381,1.531-8.082,1.442"/>
</g>
<g>
	<path fill="none" stroke="#020202" stroke-width="2" stroke-miterlimit="10" d="M429.685,230.43
		c11.588,4.963,24.112,6.915,36.182,11.039c12.022,4.107,23.58,8.474,35.464,12.897c12.619,4.696,25.51,7.546,38.151,12.001
		c13.704,4.827,28.536,10.669,41.899,16.737c5.403,2.454,13.537,3.593,16.368,9.464c2.443,5.068,0.598,13.303,0.346,19.007
		c-0.669,15.191-1.336,30.384-2.005,45.575c-0.31,7.04-0.619,14.081-0.929,21.122c-0.226,5.118-0.286,10.266-1.135,15.277
		c-0.845,4.991-2.05,9.75-2.497,14.765c-0.865,9.722-1.976,19.596-1.661,29.518c0.206,6.487,0.49,13.245-0.012,19.838
		c0.467-0.488,0.494-0.929,0.692-1.548"/>
	<path fill="none" stroke="#020202" stroke-width="2" stroke-miterlimit="10" d="M423.267,254.802
		c1.138-3.899,1.36-8.463,1.734-12.407c0.496-5.231-0.826-10.633,5.573-11.927"/>
</g>
<g>
	<path fill="none" stroke="#020202" stroke-width="2" stroke-miterlimit="10" d="M466.971,314.646
		c-2.46-1.602,0.216-5.361,1.143-7.087c1.372-2.556,1.936-5.304,1.313-8.251"/>
	<path fill="none" stroke="#020202" stroke-width="2" stroke-miterlimit="10" d="M465.628,318.15
		c4.186-1.619,7.245-1.774,10.231,2.016c2.945,3.741,2.601,7.726-1.788,10.302c-3.402,1.995-7.937,3.363-11.759,3.946
		c-3.197,0.487-11.181-0.056-10.546-4.992"/>
</g>
<polyline fill="#755522" points="403.404,257.585 422.29,246.988 422.29,245.125 403.154,255.54 403.154,256.006 403.404,257.585 
	"/>
<polygon fill="#755522" points="343.662,251.355 403.081,255.54 403.363,257.675 343.662,252.508 "/>
<rect x="397.489" y="257.129" fill="#755522" width="4.38" height="24.855"/>
<rect x="416.435" y="246.751" fill="#755522" width="4.38" height="17.368"/>
<polygon fill="#BA943E" stroke="#020202" stroke-miterlimit="10" points="342.838,250.869 403.081,255.54 422.594,244.458 
	365.589,241.945 "/>
<path fill="#72AECD" d="M410.34,236.509c0,5.388-3.425,9.756-7.651,9.756h-9.589c-4.226,0-7.651-4.367-7.651-9.756v-16.68
	c0-5.388,3.425-9.756,7.651-9.756h9.589c4.226,0,7.651,4.367,7.651,9.756V236.509z"/>
<rect x="388.443" y="223.95" fill="none" width="18.232" height="7.186"/>
<text transform="matrix(1 0 0 1 388.4431 229.6378)" fill="#020202" font-family="'MyriadPro-Regular'" font-size="8.012">Napa</text>
<rect x="392.329" y="203.441" fill="#DDEBBD" width="11.129" height="8.109"/>
<polygon fill="#C5C5D8" stroke="#69703C" stroke-miterlimit="10" points="378.767,250.579 359.224,249.732 366.019,245.166 
	384.621,245.972 "/>
<g>
	<path fill="none" stroke="#020202" stroke-width="2" stroke-miterlimit="10" d="M398.411,259.62
		c-3.784-0.401-7.206,1.301-11.123,1.113c-4.708-0.227-8.702-1.907-13.136-3.055c-4.617-1.196-8.922-2.96-13.409-4.29
		c-5.087-1.507-10.387-2.986-15.507-4.608c-1.515-0.48-2.875-0.832-4.301-0.707c2.946-1.695,3.604-9.459,3.616-12.714"/>
	<g>
		<g>
			<path fill="#FEE4D1" d="M341.881,248.714c4.322,0,8.039,1.431,11.796,2.795c3.824,1.389,7.912,2.238,11.807,3.376
				c7.799,2.278,15.714,6.981,24.47,6.516c4.066-0.216,7.745-1.412,11.795-1.953c3.964-0.529,8.312-0.699,12.19-1.625
				c7.826-1.866,16.6-1.297,24.921-1.318c5.039-0.012,8.476,2.675,12.501,5.268c3.663,2.36,9.091,5.751,11.156,9.883
				c0.783,1.567,1.222,4.526-0.011,5.547c-1.377,1.139-4.46,0.174-6.237,0.434c-4.836,0.706-8.279,3.299-11.618-2.16
				c-1.222-1.998-2.045-4.343-3.024-6.458c-1.234-2.667-1.373-3.173-4.549-3.166c-3.888,0.009-7.925,2.613-10.623,5.326
				c-3.07,3.089-2.992,7.677-8.017,8.967c-5.459,1.4-0.931-7.198-0.262-9.397c0.328-1.078,0.716-2.846,0.449-3.987
				c-2.224,1.264-3.321,3.143-5.095,4.883c-1.411,1.384-3.488,1.978-5.163,2.828c-4.171,2.115-9.524,3.347-14.188,4.278
				c-8.591,1.714-18.374,0.617-26.88-0.657c-9.917-1.485-21.221-1.502-30.634-4.451c-2.716-0.851-5.377-1.308-7.473-3.339
				c-2.444-2.366,0.415-3.113,2.249-5.019c2.884-2.997,5.143-7.122,7.371-10.739c1.005-1.632,2.263-3.28,2.843-5.161"/>
			<g>
				<g>
					<g>
						<path fill="#D3256B" d="M399.3,255.933c-15.958-4.326-17.769,23.048-3.855,26.959c2.077,0.584,2.957-2.637,0.888-3.219
							c-9.839-2.765-9.483-23.654,2.08-20.52C400.493,259.716,401.376,256.495,399.3,255.933L399.3,255.933z"/>
					</g>
				</g>
				<path fill="none" stroke="#020202" stroke-width="2" stroke-miterlimit="10" d="M402.332,258.039
					c-1.762-3.966-7.248-4.322-10.893-2.204c-4.5,2.617-5.323,6.507-5.547,11.282c-0.318,6.823,4.915,23.919,13.36,13.657"/>
			</g>
		</g>
		<g>
			<path fill="none" stroke="#020202" stroke-width="2" stroke-miterlimit="10" d="M397.268,278.608
				c4.963,0.712,12.781-4.849,17.224-6.667"/>
			<g>
				<path fill="none" stroke="#020202" stroke-width="2" stroke-miterlimit="10" d="M440.327,265.354
					c-3.708-0.211-9.584,2.532-11.776,5.727c-2.762,4.027-3.42,7.218-7.958,9.38c-4.05,1.93-9.116,2.437-6.26-3.405
					c1.958-4.006,3.996-7.066,4.018-11.778"/>
				<g>
					<path fill="none" stroke="#020202" stroke-width="2" stroke-miterlimit="10" d="M461.459,277.869
						c4.702,0.551,3.528-3.017,1.975-6.07c-1.115-2.187-3.807-7.708-6.414-7.789"/>
					<path fill="none" stroke="#020202" stroke-width="2" stroke-miterlimit="10" d="M395.447,259.221
						c3.654,0.389,8.033-1.225,11.389-2.179c4.259-1.212,8.304-1.539,12.817-1.509c4.301,0.03,8.304,0.04,12.506-0.342
						c3.535-0.321,7.714-1.455,11.226,0.249c-0.033,4.309,4.602,7.943,6.986,11.188c2.257,3.073,1.685,8.96,1.499,13.194"/>
					<path fill="none" stroke="#020202" stroke-width="2" stroke-miterlimit="10" d="M445.383,258.447
						c4.723,0.961,11.264,4.144,13.042,8.881c1.054,2.808,1.168,5.835,0.728,8.951c-0.712,5.051-3.16,1.858-5.942,0.036"/>
				</g>
			</g>
		</g>
	</g>
</g>
<path fill="#2C2C6A" d="M324.412,186.401c0,0-9.557-1.813-17.631,3.765c-8.075,5.58-28.176,20.713-42.328,24.273
	c-14.152,3.561-48.425,15.001-60.555,25.638s-19.919,13.153-25.372,29.755s-9.885,64.723-9.885,64.723s-2.977-35.884,2.341-52.908
	c5.317-17.023,11.8-36.081,45.378-53.45c0,0,18.469-10.979,30.155-15.318c11.687-4.34,48.63-23.925,48.63-23.925
	s12.372-5.992,21.142-4.834C325.059,185.282,324.412,186.401,324.412,186.401z"/>
<path fill="none" stroke="#020202" stroke-width="2" stroke-miterlimit="10" d="M203.675,233.061
	c-0.389,5.392-8.101,7.149-11.597,10.771c-4.728,4.899-8.814,10.689-12.558,16.4c-3.417,5.213-5.956,11.935-6.811,18.094
	c-0.693,4.994,0.2,10.257-0.363,15.139"/>
<path fill="#D3256B" d="M183.156,254.802c0,0,3.457-43.21,15.726-57.156c12.27-13.947,18.932-17.559,28.159-22.301
	c9.229-4.742,19.882-5.643,19.882-5.643s0,1.489,0,12.765c0,11.277,3.109,24.332,3.109,24.332s2.251,0.211-3.109,3.369
	c-5.361,3.158-8.174,4.317-8.174,4.317l-2.665,1.549c0,0-0.517-0.279,1.769,14.397c2.465,15.82,7.87,21.77,7.87,21.77
	s-8.783,0.492-13.043,4.876c-4.261,4.383-9.82,9.422-10.951,9.813c-1.13,0.39-3.782,11.041-6.876,3.253
	c-3.094-7.787-10.637-27.227-11.527-36.042c-0.89-8.815-0.098-4.047-1.434,0.6c-1.233,4.289-8.636,8.904-12.961,13.35
	C184.607,252.498,183.156,254.802,183.156,254.802z"/>
<path fill="none" stroke="#020202" stroke-width="2" stroke-miterlimit="10" d="M199.286,221.483
	c2.41,1.294,3.007,8.138,3.611,10.763c1.235,5.376,2.56,10.551,3.836,15.952c1.116,4.721,3.228,9.537,5.028,14.157
	c1.164,2.99,1.963,8.28,5.21,9.511"/>
<path fill="none" stroke="#020202" stroke-width="2" stroke-miterlimit="10" d="M235.425,203.469
	c0.843,8.272,1.844,17.038,3.568,25.099c1.011,4.723,2.296,9.117,3.335,13.818c0.742,3.358,3.111,8.246,3.397,10.546"/>
<path fill="none" stroke="#020202" stroke-width="2" stroke-miterlimit="10" d="M216.983,271.569
	c4.507-1.854,7.995-6.755,11.436-10.108c4.291-4.183,8.674-7.16,14.598-7.755"/>
<path fill="#FFCC78" d="M2.354,479.506c0,0,39.076-14.863,58.197-24.601c19.119-9.739,52.725-19.002,75.558-41.044
	s75.461-41.802,92.767-45.054c17.307-3.251,34.928-10.36,38.368-14.23c3.44-3.87,1.265-9.81,15.692-9.362
	c14.427,0.447,74.891-4.963,98.709,14.827c23.818,19.791,60.685,60.429,62.317,75.48c1.632,15.052,7.683,29.654,16.641,36.417
	c8.959,6.762,6.552,8.457,0,20.92c-6.552,12.463-26.576,21.615-26.576,21.615H4.04L2.354,479.506z"/>
<g>
	<g>
		<path fill="#A2A637" d="M279.26,347.304c21.296,2.426,42.819-0.524,64.165,1.373c9.852,0.876,19.779,3.144,28.344,8.224
			c9.598,5.692,18.417,13.311,26.556,20.89c16.809,15.651,30.082,34.384,40.345,54.873c4.57,9.123,8.01,18.755,13.228,27.557
			c5.181,8.738,12.247,15.955,20.25,22.13c0.75,0.586,1.508,1.163,2.273,1.731c2.916,2.192,7.455,0.473,9.135-2.395
			c2.001-3.414,0.508-6.954-2.395-9.135c-7.677-5.769-14.022-12.591-18.81-20.917c-5.208-9.054-8.715-18.981-13.446-28.278
			c-10.438-20.512-24.404-39.207-41.135-55.006c-8.471-7.999-17.752-15.021-27.28-21.7c-8.416-5.901-18.848-8.783-28.882-10.323
			c-21.705-3.33-43.636-0.602-65.448-1.778c-2.306-0.125-4.605-0.337-6.898-0.599c-3.624-0.413-6.677,3.35-6.677,6.677
			C272.583,344.578,275.645,346.892,279.26,347.304L279.26,347.304z"/>
	</g>
</g>
<path fill="#9164AA" d="M302.043,336.392l24.31-11.067l9.518-4.18l9.515,11.824l-3.06,3.118c0,0-24.852-0.037-26.558,1.252
	c-1.706,1.289-8.518,1.644-10.534,1.261C303.217,338.217,302.043,336.392,302.043,336.392z"/>
<path fill="none" stroke="#A2A637" stroke-miterlimit="10" d="M304.047,389.147c12.649-9.678,1.399-25.996,10.119-36.055
	c5.355-6.176,17.019-8.461,24.155-6.232"/>
<path fill="none" stroke="#A2A637" stroke-miterlimit="10" d="M334.751,348.102c-6.886-3.004-20.057-0.519-26.361,3.551
	c-4.769,3.079-7.994,7.978-12.752,11.035c-9.207,5.916-19.843,5.002-30.326,4.999"/>
<path fill="none" stroke="#A2A637" stroke-miterlimit="10" d="M360.576,413.184c14.492-1.53,27.757,27.642,33.388,37.278
	c4.432,7.582,8.414,15.263,10.828,23.766c1.356,4.772,2.57,13.219,0.741,18.187"/>
<path fill="none" stroke="#A2A637" stroke-miterlimit="10" d="M334.314,390.929c2.24-0.901,10.944,4.734,13.908,6.131
	c4.913,2.316,10.182,3.678,15.015,5.766c9.249,3.996,19.607,8.438,25.926,16.371c8.492,10.658,17.31,19.507,23.035,32.182
	c6.255,13.85,7.578,28.532,7.578,43.707"/>
<path fill="none" stroke="#A2A637" stroke-miterlimit="10" d="M117.099,428.317c4.426-0.761,9.125-0.939,13.709-0.89
	c5.507,0.058,9.797,2.84,15.188,3.472c6.006,0.705,11.257-0.47,17.036-1.356c10.364-1.589,18.007,9.328,27.51,12.573"/>
<path fill="none" stroke="#A2A637" stroke-miterlimit="10" d="M101.296,436.941c5.717,0,9.963,0.245,15.152-1.89
	c3.349-1.378,16.579-5.481,16.451,1.444"/>
</svg>
