<?xml version="1.0" encoding="utf-8"?>
<!-- Generator: Adobe Illustrator 17.0.0, SVG Export Plug-In . SVG Version: 6.00 Build 0)  -->
<!DOCTYPE svg PUBLIC "-//W3C//DTD SVG 1.1//EN" "http://www.w3.org/Graphics/SVG/1.1/DTD/svg11.dtd">
<svg version="1.1" id="Layer_1" xmlns="http://www.w3.org/2000/svg" xmlns:xlink="http://www.w3.org/1999/xlink" x="0px" y="0px"
	 width="800px" height="800px" viewBox="0 0 800 800" enable-background="new 0 0 800 800" xml:space="preserve">
<path fill="none" stroke="#000000" stroke-miterlimit="10" d="M57,213l191-19l427-29l44-2c0,0,3-5,12,1s29,21,25,23s-202,15-202,15
	L79,239.5l-8,1.5L57,213z"/>
<path fill="none" stroke="#000000" stroke-miterlimit="10" d="M756,187l-3,256c0,0,5,15-6,15s-297,27-297,27l-198,19l-83,9
	c0,0-27-11-36-7s-11,11-11,11l-38,1.002L71,241L756,187z"/>
<path fill="none" stroke="#000000" stroke-miterlimit="10" d="M84,518.002c0,0-5.5-5.502-9.5-12.502s-9-21-9-21s0.5,3,0-12.5
	S54,216,54,216s1.5-5.5,3-3s14,28,14,28L84,518.002z"/>
<path fill="none" stroke="#000000" stroke-miterlimit="10" d="M57,614c0,0-16.5-1-13.5-9.5s29-70,29-70s1-8,15.5-8.5s32-1,32-1
	s1.5-9.5,5.5-13s27-8,38-2s25,15.5,25,15.5l34-0.5c0,0,1-13,9.5-15.5s24-6.5,31.5-1.5s27,17.5,27,17.5h37c0,0-5-13.5,14.5-17
	s35,7,40,9.5s8,5.5,8,5.5l41-0.5c0,0,2-17.5,20-17.5s28.5,8.5,31.5,10.5s8,5,8,5l45-1.5c0,0,7.5-12.5,19.5-12.5s14.5,1.5,20,6
	s8,5.5,8,5.5l57-2c0,0,11.5-12.5,23.5-10.5s3-2.5,12,2s16.5,8,16.5,8s14.5-2.5,23,0s25.5,7.5,27.5,17s14.5,87.5,14.5,87.5
	s-1,10.5-10.5,15c0,0-13,7-47,7s-215-5.5-215-5.5s-39.5-2.5-77.5-4s-55-2-93.5-4.5s-76.5-4-106.5-6.5s-82-3-82-3s-33-2-42-2
	S57,614,57,614z"/>
</svg>
