<?xml version="1.0" encoding="utf-8"?>
<!-- Generator: Adobe Illustrator 17.0.0, SVG Export Plug-In . SVG Version: 6.00 Build 0)  -->
<!DOCTYPE svg PUBLIC "-//W3C//DTD SVG 1.1//EN" "http://www.w3.org/Graphics/SVG/1.1/DTD/svg11.dtd">
<svg version="1.1" id="Layer_1" xmlns="http://www.w3.org/2000/svg" xmlns:xlink="http://www.w3.org/1999/xlink" x="0px" y="0px"
	 width="600px" height="600px" viewBox="0 0 600 600" enable-background="new 0 0 600 600" xml:space="preserve">
<g>
	<g>
		<polyline fill="none" stroke="#000000" stroke-miterlimit="10" points="61.47,166.555 61.444,164.556 63.44,164.418 		"/>
		<polyline fill="none" stroke="#000000" stroke-miterlimit="10" stroke-dasharray="4.0216,4.0216" points="67.452,164.142 
			323.944,146.5 464.917,137.472 567.305,166.248 		"/>
		<polyline fill="none" stroke="#000000" stroke-miterlimit="10" points="569.241,166.792 571.167,167.333 571.156,169.333 		"/>
		
			<line fill="none" stroke="#000000" stroke-miterlimit="10" stroke-dasharray="4.0481,4.0481" x1="571.134" y1="173.381" x2="569.799" y2="422.337"/>
		<polyline fill="none" stroke="#000000" stroke-miterlimit="10" points="569.789,424.361 569.778,426.361 567.799,426.653 		"/>
		<polyline fill="none" stroke="#000000" stroke-miterlimit="10" stroke-dasharray="3.9715,3.9715" points="563.87,427.233 
			198.25,481.222 68.692,437.361 		"/>
		<polyline fill="none" stroke="#000000" stroke-miterlimit="10" points="66.811,436.725 64.917,436.083 64.891,434.083 		"/>
		
			<line fill="none" stroke="#000000" stroke-miterlimit="10" stroke-dasharray="3.9933,3.9933" x1="64.84" y1="430.091" x2="61.496" y2="168.552"/>
	</g>
</g>
<polyline fill="none" stroke="#000000" stroke-miterlimit="10" stroke-dasharray="4,4" points="64.222,168.028 196.167,205.528 
	197.556,477.056 "/>
<line fill="none" stroke="#000000" stroke-miterlimit="10" stroke-dasharray="4,4" x1="196.167" y1="205.528" x2="568.389" y2="168.028"/>
</svg>
